<?xml version="1.0" encoding="UTF-8"?>
<!DOCTYPE svg PUBLIC "-//W3C//DTD SVG 1.1//EN" "http://www.w3.org/Graphics/SVG/1.1/DTD/svg11.dtd">
<!-- Creator: CorelDRAW X8 -->
<svg xmlns="http://www.w3.org/2000/svg" xml:space="preserve" width="720px" height="1280px" version="1.1" style="shape-rendering:geometricPrecision; text-rendering:geometricPrecision; image-rendering:optimizeQuality; fill-rule:evenodd; clip-rule:evenodd"
viewBox="0 0 720 1280"
 xmlns:xlink="http://www.w3.org/1999/xlink">
 <defs>
  <style type="text/css">
   <![CDATA[
    .fil0 {fill:white}
    .fil2 {fill:url(#id0);fill-rule:nonzero}
    .fil3 {fill:url(#id1);fill-rule:nonzero}
    .fil1 {fill:url(#id2);fill-rule:nonzero}
   ]]>
  </style>
  <linearGradient id="id0" gradientUnits="userSpaceOnUse" x1="-97.7492" y1="409.211" x2="-101.387" y2="622.058">
   <stop offset="0" style="stop-opacity:1; stop-color:#00A4F6"/>
   <stop offset="1" style="stop-opacity:1; stop-color:#00F091"/>
  </linearGradient>
  <linearGradient id="id1" gradientUnits="userSpaceOnUse" xlink:href="#id0" x1="-98.4449" y1="451.851" x2="-102.083" y2="664.697">
  </linearGradient>
  <linearGradient id="id2" gradientUnits="userSpaceOnUse" xlink:href="#id0" x1="-97.4457" y1="370.988" x2="-101.083" y2="583.834">
  </linearGradient>
 </defs>
 <g id="Слой_x0020_1">
  <metadata id="CorelCorpID_0Corel-Layer"/>
  <polygon class="fil0" points="2,2 362,2 362,1283 2,1283 "/>
  <polygon class="fil1" points="2,386 93,481 2,568 2,562 87,481 2,392 "/>
  <polygon class="fil2" points="2,424 93,520 2,606 2,600 87,519 2,430 "/>
  <polygon class="fil3" points="2,468 92,562 4,646 2,646 2,642 86,562 2,474 "/>
 </g>
</svg>
